<?xml version="1.0" encoding="UTF-8"?>
<!DOCTYPE svg PUBLIC "-//W3C//DTD SVG 1.1//EN" "http://www.w3.org/Graphics/SVG/1.1/DTD/svg11.dtd">
<!-- Creator: CorelDRAW 2018 (64 Bit) -->
<svg xmlns="http://www.w3.org/2000/svg" xml:space="preserve" width="26.4583mm" height="16.2278mm" version="1.1" style="shape-rendering:geometricPrecision; text-rendering:geometricPrecision; image-rendering:optimizeQuality; fill-rule:evenodd; clip-rule:evenodd"
viewBox="0 0 163.73 100.42"
 xmlns:xlink="http://www.w3.org/1999/xlink">
 <defs>
  <style type="text/css">
   <![CDATA[
    .fil0 {fill:#FEFEFE;fill-rule:nonzero}
   ]]>
  </style>
 </defs>
 <g id="Capa_x0020_1">
  <metadata id="CorelCorpID_0Corel-Layer"/>
  <path class="fil0" d="M156.93 13.4c-3.76,0 -6.8,-3 -6.8,-6.7 0,-3.7 3.04,-6.7 6.8,-6.7 3.76,0 6.8,3 6.8,6.7 0,3.7 -3.07,6.7 -6.8,6.7zm-119.4 6.73l-37.53 -0.03 0 5.14c0,4.55 3.76,8.25 8.38,8.25l29.1 0c9.38,0 16.99,7.49 16.99,16.73 0,9.24 -7.6,16.73 -16.99,16.73l-16.96 0 -5.68 0c-4.36,0 -7.89,3.48 -7.89,7.77l0 18.99c0,3.7 3.04,6.7 6.8,6.7 3.76,0 6.8,-3 6.8,-6.7l0 -13.37 16.99 0c16.87,0 30.56,-13.48 30.56,-30.1 -0.03,-16.62 -13.69,-30.1 -30.56,-30.13zm68.29 -0.03l37.36 0 0.09 53.56c0,3.7 -3.04,6.7 -6.8,6.7 -3.76,0 -6.8,-3 -6.8,-6.7l0 -40.16 -23.79 0c-9.38,0 -16.99,7.49 -16.99,16.73 0,9.24 7.6,16.73 16.99,16.73l10.16 0c3.76,0 6.8,3 6.8,6.7 0,3.7 -3.04,6.7 -6.8,6.7l-10.21 0c-16.87,0 -30.56,-13.45 -30.59,-30.1 -0.06,-16.65 13.66,-30.16 30.59,-30.16zm44.3 0l0 53.59c0,3.7 3.04,6.7 6.8,6.7 3.76,0 6.8,-3 6.8,-6.7l0 -53.59 -13.6 0z"/>
 </g>
</svg>
