<?xml version="1.0" encoding="UTF-8"?>
<!DOCTYPE svg PUBLIC "-//W3C//DTD SVG 1.1//EN" "http://www.w3.org/Graphics/SVG/1.1/DTD/svg11.dtd">
<!-- Creator: CorelDRAW 2018 (64 Bit) -->
<svg xmlns="http://www.w3.org/2000/svg" xml:space="preserve" width="11.9486mm" height="4.6764mm" version="1.1" style="shape-rendering:geometricPrecision; text-rendering:geometricPrecision; image-rendering:optimizeQuality; fill-rule:evenodd; clip-rule:evenodd"
viewBox="0 0 50.4 19.73"
 xmlns:xlink="http://www.w3.org/1999/xlink">
 <defs>
  <style type="text/css">
   <![CDATA[
    .fil0 {fill:#FEFEFE;fill-rule:nonzero}
   ]]>
  </style>
 </defs>
 <g id="Capa_x0020_1">
  <metadata id="CorelCorpID_0Corel-Layer"/>
  <path class="fil0" d="M34.85 4.12c-0.49,-0 -0.97,0.09 -1.42,0.27 -0.45,0.18 -0.86,0.44 -1.21,0.77l-0.17 -0.82 -2.94 0 0 15.39 3.35 -0.7 0 -3.73c0.67,0.54 1.51,0.84 2.38,0.83 2.39,0 4.58,-1.89 4.58,-6.09 0,-3.84 -2.22,-5.92 -4.57,-5.92zm-0.8 9.09c-0.29,0.02 -0.59,-0.03 -0.86,-0.14 -0.27,-0.11 -0.52,-0.27 -0.72,-0.48l0 -4.9c0.2,-0.22 0.45,-0.39 0.72,-0.5 0.28,-0.11 0.58,-0.17 0.88,-0.15 1.23,0 2.07,1.35 2.07,3.07 0,1.73 -0.85,3.1 -2.09,3.1zm11.56 -9.09c-3.23,0 -5.19,2.69 -5.19,6.09 0,4.01 2.32,6.05 5.62,6.05 1.29,0.02 2.56,-0.28 3.7,-0.87l0 -2.68c-1.03,0.5 -2.17,0.76 -3.33,0.74 -1.33,0 -2.46,-0.46 -2.64,-2.02l6.63 0c0,-0.18 0,-0.88 0,-1.19 0.11,-3.42 -1.56,-6.11 -4.79,-6.11zm-1.81 4.85c0,-1.5 0.95,-2.13 1.79,-2.13 0.84,0 1.72,0.63 1.72,2.13l-3.51 0zm-23.73 -3.74l-0.21 -0.98 -2.86 0 0 11.57 3.3 0 0 -7.84c0.3,-0.35 0.7,-0.6 1.15,-0.73 0.45,-0.12 0.93,-0.11 1.37,0.04l0 -3.04c-0.5,-0.19 -1.06,-0.2 -1.57,-0.02 -0.51,0.18 -0.93,0.53 -1.19,0.99l0 0zm-16.68 2.5c0,-0.52 0.44,-0.73 1.15,-0.73 1.16,0.02 2.3,0.32 3.33,0.86l0 -3.13c-1.06,-0.41 -2.19,-0.62 -3.33,-0.61 -2.72,0 -4.53,1.41 -4.53,3.76 0,3.69 5.1,3.1 5.1,4.68 0,0.62 -0.54,0.82 -1.23,0.82 -1.3,-0.07 -2.57,-0.44 -3.7,-1.07l0 3.2c1.16,0.5 2.42,0.76 3.7,0.76 2.78,0 4.71,-1.37 4.71,-3.76 -0.06,-4 -5.19,-3.29 -5.19,-4.79zm9.63 -6.22l-3.26 0.69 0 10.64c-0.02,0.45 0.06,0.9 0.23,1.31 0.17,0.42 0.42,0.8 0.75,1.12 0.32,0.32 0.71,0.57 1.14,0.74 0.43,0.17 0.89,0.25 1.35,0.24 0.81,0.04 1.62,-0.12 2.35,-0.44l0 -2.68c-0.43,0.18 -2.54,0.79 -2.54,-1.19l0 -4.76 2.54 0 0 -2.79 -2.54 0 -0.02 -2.88zm11.05 1.74l3.36 -0.68 0 -2.57 -3.36 0.68 0 2.57zm3.36 1.08l-3.36 0 0 11.48 3.36 0 0 -11.48z"/>
 </g>
</svg>
