<?xml version="1.0" encoding="UTF-8"?>
<!DOCTYPE svg PUBLIC "-//W3C//DTD SVG 1.1//EN" "http://www.w3.org/Graphics/SVG/1.1/DTD/svg11.dtd">
<!-- Creator: CorelDRAW 2018 (64 Bit) -->
<svg xmlns="http://www.w3.org/2000/svg" xml:space="preserve" width="11.5237mm" height="8.9262mm" version="1.1" style="shape-rendering:geometricPrecision; text-rendering:geometricPrecision; image-rendering:optimizeQuality; fill-rule:evenodd; clip-rule:evenodd"
viewBox="0 0 36.06 27.93"
 xmlns:xlink="http://www.w3.org/1999/xlink">
 <defs>
  <style type="text/css">
   <![CDATA[
    .fil0 {fill:#FEFEFE;fill-rule:nonzero}
   ]]>
  </style>
 </defs>
 <g id="Capa_x0020_1">
  <metadata id="CorelCorpID_0Corel-Layer"/>
  <path class="fil0" d="M20.35 8.47c0,-1.02 -0.88,-1.15 -1.71,-1.15l-2.45 -0.02 0 4.32 1.03 0 0 -1.56 1.13 0c1.15,0 0.91,0.64 0.93,1.56l1.04 0 0 -0.84c0,-0.57 -0.09,-0.94 -0.69,-1.15 0.46,-0.19 0.74,-0.67 0.73,-1.17l0 0zm-1.84 0.7l-1.3 0 0 -0.95 1.31 0c0.32,0 0.67,0.06 0.67,0.46 0,0.41 -0.33,0.49 -0.69,0.49l0 0zm-1.05 5.58l-3.3 0 -1.31 1.42 -1.28 -1.42 -4.16 0 -0.01 4.32 4.09 0 1.33 -1.43 1.28 1.43 2.01 0 0.01 -1.45c1.18,0 3.08,0.29 3.08,-1.45 0,-1.08 -0.77,-1.42 -1.75,-1.42l0 0zm-6.5 3.41l-2.54 0 0 -0.86 2.27 0 0 -0.88 -2.27 0 0 -0.78 2.61 0 1.12 1.26 -1.19 1.26zm4.12 0.51l-1.58 -1.75 1.58 -1.71 0 3.46zm2.37 -1.93l-1.33 0 0 -1.1 1.35 0c0.35,0 0.64,0.14 0.64,0.52 0,0.4 -0.29,0.57 -0.66,0.57l0 0zm-1.98 -8.52l0 -0.91 -3.47 0 0 4.32 3.47 0 0 -0.89 -2.43 0 0 -0.86 2.37 0 0 -0.88 -2.37 0 0 -0.78 2.43 0zm20.57 5.71l-0.01 0 0.01 0zm-12.18 1.99c0,-1.02 -0.88,-1.17 -1.7,-1.17l-2.47 0 -0.01 4.32 1.04 0 0.01 -1.58 1.1 0c0.69,0 0.93,0.12 0.93,0.86l-0.01 0.72 1.04 0 0.01 -0.86c0,-0.55 -0.11,-0.94 -0.69,-1.15 0.48,-0.19 0.74,-0.67 0.74,-1.15l0 0zm-1.83 0.7l-1.3 0 0 -0.97 1.31 0c0.32,0 0.67,0.06 0.67,0.46 0,0.43 -0.34,0.51 -0.69,0.51l0 0zm-10.81 -4.99l0 -4.32 -1.73 0 -1.23 2.93 -1.36 -2.93 -1.7 0 0 4.1 -1.76 -4.1 -1.53 0 -1.86 4.32 1.12 0 0.4 -0.95 2.16 0 0.4 0.95 2.11 0 0 -3.38 1.5 3.38 0.91 0 1.5 -3.38 0 3.38 1.05 0zm-9.27 -1.85l0.7 -1.72 0.72 1.72 -1.42 0zm29.87 9.91l0 -0.28c-0.68,0.35 -0.24,0.28 -9.81,0.28 0,-1.57 0.01,-1.49 0,-1.57 -0.11,-0.01 -0.2,-0.01 -0.59,-0.01 0,1.12 -0.01,0.42 -0.01,1.58l-2.48 0c0,-0.75 0.01,-0.95 0.01,-1.82 -0.63,0.37 -1.43,0.4 -2.15,0.39 0,0.92 -0.01,0.52 -0.01,1.43l-3.06 0c-0.32,-0.36 -0.17,-0.19 -0.96,-1.08 -0.2,0.22 -0.8,0.87 -1.01,1.08l-5.13 0 0 -5.76 5.2 0c0.31,0.35 0.18,0.19 0.97,1.07 0.2,-0.22 0.76,-0.84 0.98,-1.07l3.63 0c0.61,0 1.13,0.12 1.52,0.35l0 -0.35c3.4,0 4.02,-0.09 4.74,0.32l0 -0.32 4.89 0 0 0.32c0.71,-0.43 1.23,-0.32 4.06,-0.32l0 0.31c0.64,-0.37 1.04,-0.32 3.4,-0.31l0 -10.94c0,-1.65 -1.35,-2.99 -3,-2.99l-30.03 0c-1.66,0 -3,1.34 -3,2.99l0 6.85c0.59,-1.37 1.23,-2.87 1.45,-3.36l2.48 0c0.27,0.63 0.1,0.23 0.56,1.32l0 -1.32 2.88 0c0.18,0.39 0.69,1.5 0.87,1.87 0.36,-0.85 0.63,-1.49 0.79,-1.87l6.44 0c0,-0.01 0.72,0 0.73,0 2.73,0.01 3.35,-0.05 4.03,0.33l0 -0.33 2.5 0 0 0.58c0.48,-0.38 1.12,-0.58 1.92,-0.58l1.73 0c0,0.03 0.12,0.02 0.14,0.02l2.03 0c0.26,0.61 0.16,0.37 0.55,1.28l0 -1.28 2.71 0c0.31,0.5 -0.06,-0.11 0.7,1.15l0 -1.15 2.5 0 0 5.74 -2.6 0c-0.34,-0.56 -0.09,-0.14 -0.83,-1.37l0 1.37 -3.3 0c-0.4,-0.92 -0.01,-0.02 -0.41,-0.95l-1.19 0c-0.26,0.62 -0.14,0.32 -0.4,0.95l-1.68 0c-0.77,0 -1.4,-0.19 -1.86,-0.56l0 0.56 -4.16 0c-0.02,-0.87 -0.01,-1.55 -0.01,-1.55 -0.11,-0.02 -0.21,-0.01 -0.61,-0.01l0 1.56 -8.48 0 0 -0.71c-0.16,0.35 -0.17,0.37 -0.32,0.71l-1.85 0c-0.25,-0.56 -0.18,-0.4 -0.32,-0.71l0 0.71 -3.31 0c-0.26,-0.63 -0.14,-0.33 -0.4,-0.95l-1.2 0c-0.26,0.62 -0.14,0.32 -0.4,0.95l-1.66 0 0 12.7c0,1.65 1.35,2.99 3,2.99l30.04 0c1.66,0 3,-1.34 3,-2.99l0 -5.64c-0.79,0.52 -2.05,0.38 -4.22,0.38l0 0zm2.27 -4.02l1.88 0 0 -0.91 -2.06 0c-0.8,0 -1.49,0.41 -1.49,1.29 0,2.06 2.67,0.8 2.67,1.71 0,0.32 -0.27,0.4 -0.53,0.4l-2 0 -0.01 0.92 2 0c0.53,0 1.1,-0.11 1.41,-0.55l0 -1.61c-0.66,-0.86 -2.46,-0.08 -2.46,-0.84 0,-0.36 0.29,-0.41 0.58,-0.41l0 0zm-3.57 2.48l-2.01 0 -0.01 0.92 2.01 0c0.93,0 1.64,-0.35 1.64,-1.37 0,-2.07 -2.68,-0.7 -2.68,-1.64 0,-0.35 0.31,-0.4 0.58,-0.4l1.9 0 0 -0.91 -2.08 0c-0.8,0 -1.47,0.41 -1.47,1.29 0,2.06 2.67,0.78 2.67,1.71 -0.01,0.34 -0.29,0.4 -0.55,0.4l0 0zm-2.64 -2.5l0 -0.89 -3.45 0 -0.01 4.32 3.45 0 0.01 -0.89 -2.42 -0.02 0 -0.86 2.37 0 0 -0.88 -2.37 0 0 -0.78 2.41 0zm-3.52 -6.74c-0.02,0.01 -0.09,0.14 -0.09,0.47 0,0.37 0.06,0.48 0.07,0.49 0.01,0.01 0.07,0.03 0.21,0.03l0.46 -1.05c-0.07,0 -0.13,-0.01 -0.19,-0.01 -0.35,0 -0.44,0.04 -0.46,0.06zm1.28 -0.65l-0.01 0 0.01 0zm-1.01 -0.95c-1.47,0 -2.13,0.75 -2.13,2.2 0,1.38 0.64,2.12 2.07,2.12l1.2 0 0.4 -0.95 2.15 0 0.41 0.95 2.11 0 0 -3.24 1.95 3.24 1.48 0 0 -4.3 -1.06 0 0 3 -1.82 -3 -1.58 0 0 4.08 -1.75 -4.08 -1.55 0 -1.47 3.4 -0.46 0c-0.83,0 -1.01,-0.51 -1.01,-1.24 0,-1.48 0.98,-1.25 2.07,-1.23l0 -0.95 -1.01 0zm2.63 0.75l0.7 1.72 -1.43 0 0.73 -1.72zm-6.33 -0.75l0 4.32 1.06 0 0 -4.32 -1.06 0z"/>
 </g>
</svg>
