<?xml version="1.0" encoding="UTF-8"?>
<!DOCTYPE svg PUBLIC "-//W3C//DTD SVG 1.1//EN" "http://www.w3.org/Graphics/SVG/1.1/DTD/svg11.dtd">
<!-- Creator: CorelDRAW 2018 (64 Bit) -->
<svg xmlns="http://www.w3.org/2000/svg" xml:space="preserve" width="6.7781mm" height="7.8474mm" version="1.1" style="shape-rendering:geometricPrecision; text-rendering:geometricPrecision; image-rendering:optimizeQuality; fill-rule:evenodd; clip-rule:evenodd"
viewBox="0 0 19.89 23.03"
 xmlns:xlink="http://www.w3.org/1999/xlink">
 <defs>
  <style type="text/css">
   <![CDATA[
    .fil0 {fill:#F28C51}
    .fil1 {fill:white}
   ]]>
  </style>
 </defs>
 <g id="Capa_x0020_1">
  <metadata id="CorelCorpID_0Corel-Layer"/>
  <polygon class="fil0" points="5.24,13.35 6.81,13.35 6.81,8.9 5.24,8.9 "/>
  <path class="fil1" d="M17.14 18.58l-14.39 0c-0.65,0 -1.18,-0.52 -1.18,-1.18 0,-0.65 0.52,-1.18 1.18,-1.18l14.39 0c0.65,0 1.18,0.52 1.18,1.18 0,0.65 -0.52,1.18 -1.18,1.18zm-7.2 2.88c-0.73,0 -1.39,-0.58 -1.67,-1.31l3.35 0c-0.29,0.73 -0.94,1.31 -1.67,1.31l0 0zm-6.28 -11.67c0,-3.09 2.93,-5.84 6.28,-5.84 3.35,0 6.28,2.75 6.28,5.84l0 4.87 -12.56 0 0 -4.87 0 0zm6.28 -8.19c0.44,0 0.78,0.34 0.78,0.78l-1.57 0c0,-0.44 0.34,-0.78 0.79,-0.78zm7.85 13.14l0 -4.95c0,-3.17 -2.38,-6.02 -5.5,-7.01l0 -0.42c0,-1.31 -1.05,-2.36 -2.35,-2.36 -1.31,0 -2.36,1.05 -2.36,2.36l0 0.42c-3.11,0.99 -5.5,3.85 -5.5,7.01l0 4.95c-1.47,0.37 -2.38,1.86 -2.01,3.32 0.29,1.23 1.41,2.09 2.67,2.09l3.87 0c0.37,1.6 1.75,2.88 3.32,2.88 1.57,0 2.96,-1.28 3.32,-2.88l3.87 0c1.52,0 2.75,-1.23 2.75,-2.75 0,-1.26 -0.86,-2.38 -2.09,-2.67l0 0z"/>
 </g>
</svg>
