<?xml version="1.0" encoding="UTF-8"?>
<!DOCTYPE svg PUBLIC "-//W3C//DTD SVG 1.1//EN" "http://www.w3.org/Graphics/SVG/1.1/DTD/svg11.dtd">
<!-- Creator: CorelDRAW 2018 (64 Bit) -->
<svg xmlns="http://www.w3.org/2000/svg" xml:space="preserve" width="7.4789mm" height="4.9711mm" version="1.1" style="shape-rendering:geometricPrecision; text-rendering:geometricPrecision; image-rendering:optimizeQuality; fill-rule:evenodd; clip-rule:evenodd"
viewBox="0 0 13.55 9.01"
 xmlns:xlink="http://www.w3.org/1999/xlink">
 <defs>
  <style type="text/css">
   <![CDATA[
    .fil0 {fill:#3459CE;fill-rule:nonzero}
   ]]>
  </style>
 </defs>
 <g id="Capa_x0020_1">
  <metadata id="CorelCorpID_0Corel-Layer"/>
  <path class="fil0" d="M11.56 6.49l0.06 0 0 -0 -0.06 0zm-0.9 1.29c-0.71,0 -1.29,-0.58 -1.29,-1.29l-0.13 0c0,0.78 0.64,1.42 1.42,1.42l0 -0.13zm-1.29 -1.29c0,-0.71 0.58,-1.29 1.29,-1.29l0 -0.13c-0.78,0 -1.42,0.64 -1.42,1.42l0.13 0zm1.29 -1.29c0.71,0 1.29,0.58 1.29,1.29l0.13 0c0,-0.78 -0.64,-1.42 -1.42,-1.42l0 0.13zm1.29 1.29c0,0.71 -0.58,1.29 -1.29,1.29l0 0.13c0.78,0 1.42,-0.64 1.42,-1.42l-0.13 0zm-1.29 -0.96c-0.53,0 -0.96,0.43 -0.96,0.97l0.13 0c0,-0.47 0.37,-0.84 0.84,-0.84l0 -0.13zm-0.96 0.97c0,0.53 0.43,0.96 0.96,0.96l0 -0.13c-0.46,0 -0.84,-0.37 -0.84,-0.84l-0.13 0zm0.96 0.96c0.53,0 0.97,-0.43 0.97,-0.96l-0.13 0c0,0.46 -0.38,0.84 -0.84,0.84l0 0.13zm0.97 -0.96c-0.01,-0.54 -0.44,-0.97 -0.97,-0.97l0 0.13c0.46,0 0.84,0.37 0.84,0.84l0.13 -0z"/>
  <path class="fil0" d="M10.66 7.84c-0.75,0 -1.36,-0.61 -1.36,-1.36 0,-0.75 0.61,-1.36 1.36,-1.36 0.75,0 1.36,0.61 1.36,1.36 0,0.75 -0.61,1.36 -1.36,1.36zm0 -2.26c-0.5,0 -0.9,0.4 -0.9,0.9 0,0.5 0.4,0.9 0.9,0.9 0.5,0 0.9,-0.4 0.9,-0.9 -0,-0.5 -0.41,-0.9 -0.9,-0.9z"/>
  <path class="fil0" d="M9.5 7.78c-0.71,0 -1.29,-0.58 -1.29,-1.29l-0.13 0c0,0.78 0.64,1.42 1.42,1.42l0 -0.13zm-1.29 -1.29c0,-0.71 0.58,-1.29 1.29,-1.29l0 -0.13c-0.78,0 -1.42,0.64 -1.42,1.42l0.13 0zm1.29 -1.29c0.71,0 1.29,0.58 1.29,1.29l0.13 0c0,-0.78 -0.64,-1.42 -1.42,-1.42l0 0.13zm1.29 1.29c0,0.71 -0.58,1.29 -1.29,1.29l0 0.13c0.79,0 1.42,-0.64 1.42,-1.42l-0.13 0zm-1.29 -0.96c-0.53,0 -0.96,0.43 -0.96,0.97l0.13 0c0,-0.47 0.37,-0.84 0.84,-0.84l0 -0.13zm-0.96 0.97c0,0.53 0.43,0.96 0.96,0.96l0 -0.13c-0.46,0 -0.84,-0.37 -0.84,-0.84l-0.13 0zm0.96 0.96c0.53,0 0.97,-0.43 0.97,-0.96l-0.13 0c0,0.46 -0.38,0.84 -0.84,0.84l0 0.13zm0.97 -0.96c0,-0.54 -0.43,-0.97 -0.97,-0.97l0 0.13c0.47,0 0.84,0.37 0.84,0.84l0.13 0z"/>
  <path class="fil0" d="M9.5 7.84c-0.75,0 -1.36,-0.61 -1.36,-1.36 0,-0.75 0.61,-1.36 1.36,-1.36 0.75,0 1.36,0.61 1.36,1.36 0,0.75 -0.61,1.36 -1.36,1.36zm0 -2.26c-0.5,0 -0.9,0.4 -0.9,0.9 0,0.5 0.4,0.9 0.9,0.9 0.5,0 0.9,-0.4 0.9,-0.9 0,-0.5 -0.4,-0.9 -0.9,-0.9z"/>
  <path class="fil0" d="M1.37 1.95l0.06 0 -0 -0 -0.06 0zm0.21 -0.14l5.94 0 0 -0.13 -5.94 0 0 0.13zm5.94 0c0.08,0 0.14,0.07 0.14,0.14l0.13 0c0,-0.15 -0.12,-0.27 -0.27,-0.27l0 0.13zm0.14 0.14c0,0.08 -0.07,0.14 -0.14,0.14l0 0.13c0.15,0 0.27,-0.12 0.27,-0.27l-0.13 0zm-0.14 0.14l-5.94 0 0 0.13 5.94 0 0 -0.13zm-5.94 0c-0.08,0 -0.14,-0.07 -0.14,-0.14l-0.13 0c0,0.15 0.12,0.27 0.27,0.27l0 -0.13zm-0.14 -0.15c-0,-0.07 0.06,-0.14 0.14,-0.14l0 -0.13c-0.15,0 -0.28,0.12 -0.27,0.27l0.13 -0.01z"/>
  <path class="fil0" d="M1.58 1.74l5.94 0c0.11,0 0.21,0.09 0.21,0.21 0,0.11 -0.09,0.21 -0.21,0.21l-5.94 0c-0.11,0 -0.21,-0.09 -0.21,-0.21 -0,-0.11 0.09,-0.21 0.21,-0.21z"/>
  <path class="fil0" d="M1.32 2.83l-0.06 0 0.06 0zm0.21 -0.14l2.87 0 0 -0.13 -2.87 0 0 0.13zm2.87 0c0.08,0 0.14,0.07 0.14,0.14l0.13 0c0,-0.15 -0.12,-0.27 -0.27,-0.27l0 0.13zm0.14 0.14c0,0.08 -0.07,0.14 -0.14,0.14l0 0.13c0.15,0 0.27,-0.12 0.27,-0.27l-0.13 0zm-0.14 0.14l-2.87 0 0 0.13 2.87 0 0 -0.13zm-2.87 0c-0.08,0 -0.14,-0.07 -0.14,-0.14l-0.13 0c0,0.15 0.12,0.27 0.27,0.27l0 -0.13zm-0.14 -0.14c0,-0.08 0.07,-0.14 0.14,-0.14l0 -0.13c-0.15,0 -0.27,0.12 -0.27,0.27l0.13 0z"/>
  <path class="fil0" d="M1.53 2.62l2.87 0c0.11,0 0.21,0.09 0.21,0.21 0,0.11 -0.09,0.21 -0.21,0.21l-2.87 0c-0.11,0 -0.21,-0.09 -0.21,-0.21 0,-0.11 0.09,-0.21 0.21,-0.21z"/>
  <path class="fil0" d="M6.11 2.69l1.36 0 0 -0.13 -1.36 0 0 0.13zm1.36 0c0.08,0 0.14,0.06 0.14,0.14l0.13 0c0,-0.15 -0.12,-0.27 -0.27,-0.27l0 0.13zm0.14 0.14l0 0.01 0.13 0 0 -0.01 -0.13 0zm0 0.01c0,0.08 -0.06,0.14 -0.14,0.14l0 0.13c0.15,0 0.27,-0.12 0.27,-0.27l-0.13 0zm-0.14 0.14l-1.36 0 0 0.13 1.36 0 0 -0.13zm-1.36 0c-0.08,0 -0.14,-0.06 -0.14,-0.14l-0.13 0c0,0.15 0.12,0.27 0.27,0.27l0 -0.13zm-0.14 -0.14l0 -0.01 -0.13 0 0 0.01 0.13 0zm0 -0.01c0,-0.08 0.07,-0.14 0.14,-0.14l0 -0.13c-0.15,0 -0.27,0.12 -0.27,0.27l0.13 0z"/>
  <path class="fil0" d="M6.11 2.62l1.36 0c0.11,0 0.21,0.09 0.21,0.21l0 0.01c0,0.11 -0.09,0.21 -0.21,0.21l-1.36 0c-0.11,0 -0.21,-0.09 -0.21,-0.21l0 -0.01c0,-0.11 0.09,-0.21 0.21,-0.21z"/>
  <path class="fil0" d="M12.69 8.88l-11.83 0 0 0.13 11.83 0 0 -0.13zm-11.83 0c-0.4,0 -0.73,-0.33 -0.73,-0.73l-0.13 0c0,0.48 0.38,0.86 0.86,0.86l0 -0.13zm-0.73 -0.73l0 -7.29 -0.13 0 0 7.29 0.13 0zm0 -7.29c0,-0.4 0.33,-0.73 0.73,-0.73l0 -0.13c-0.48,0 -0.86,0.38 -0.86,0.86l0.13 0zm0.73 -0.73l11.83 0 0 -0.13 -11.83 0 0 0.13zm11.83 0c0.4,0 0.73,0.33 0.73,0.73l0.13 0c0,-0.48 -0.38,-0.86 -0.86,-0.86l0 0.13zm0.73 0.73l0 7.29 0.13 0 0 -7.29 -0.13 0zm0 7.29c0,0.4 -0.33,0.73 -0.73,0.73l0 0.13c0.48,0 0.86,-0.38 0.86,-0.86l-0.13 0zm-12.56 -7.69c-0.22,0 -0.4,0.18 -0.4,0.4l0.13 0c0,-0.15 0.12,-0.28 0.28,-0.28l0 -0.13zm-0.4 0.4l0 7.29 0.13 0 0 -7.29 -0.13 0zm0 7.29c0,0.22 0.18,0.4 0.4,0.4l0 -0.13c-0.15,0 -0.28,-0.12 -0.28,-0.28l-0.13 0zm0.4 0.4l11.83 0 0 -0.13 -11.83 0 0 0.13zm11.83 0c0.22,0 0.4,-0.18 0.4,-0.4l-0.13 0c0,0.15 -0.12,0.28 -0.28,0.28l0 0.13zm0.4 -0.4l0 -7.29 -0.13 0 0 7.29 0.13 0zm0 -7.29c0,-0.22 -0.18,-0.4 -0.4,-0.4l0 0.13c0.15,0 0.28,0.12 0.28,0.28l0.13 0zm-0.4 -0.4l-11.83 0 0 0.13 11.83 0 0 -0.13z"/>
  <path class="fil0" d="M12.69 8.94l-11.83 0c-0.44,0 -0.8,-0.35 -0.8,-0.8l0 -7.29c0,-0.44 0.35,-0.8 0.8,-0.8l11.83 0c0.44,0 0.79,0.35 0.79,0.8l0 7.29c0,0.44 -0.35,0.8 -0.79,0.8zm-11.83 -8.42c-0.19,0 -0.34,0.15 -0.34,0.34l0 7.29c0,0.19 0.15,0.34 0.34,0.34l11.83 0c0.19,0 0.34,-0.15 0.34,-0.34l0 -7.29c0,-0.19 -0.15,-0.34 -0.34,-0.34l-11.83 0z"/>
 </g>
</svg>
