<?xml version="1.0" encoding="UTF-8"?>
<!DOCTYPE svg PUBLIC "-//W3C//DTD SVG 1.1//EN" "http://www.w3.org/Graphics/SVG/1.1/DTD/svg11.dtd">
<!-- Creator: CorelDRAW 2018 (64 Bit) -->
<svg xmlns="http://www.w3.org/2000/svg" xml:space="preserve" width="7.4086mm" height="7.4084mm" version="1.1" style="shape-rendering:geometricPrecision; text-rendering:geometricPrecision; image-rendering:optimizeQuality; fill-rule:evenodd; clip-rule:evenodd"
viewBox="0 0 13.3 13.3"
 xmlns:xlink="http://www.w3.org/1999/xlink">
 <defs>
  <style type="text/css">
   <![CDATA[
    .fil0 {fill:#3459CE}
   ]]>
  </style>
 </defs>
 <g id="Capa_x0020_1">
  <metadata id="CorelCorpID_0Corel-Layer"/>
  <path class="fil0" d="M8.5 0c0.04,0 0.06,0.01 0.1,0.04l0.05 0.04c0.02,0.02 0.04,0.04 0.07,0.06l0.72 0.71 1.01 1.01 0.03 0.02c0.03,0.02 0.05,0.04 0.06,0.06l0.01 0.03 0.01 0.04 0.01 0.06c0.01,0.05 0.01,0.11 0.01,0.2l0 0.76 -0.01 2.6 0.03 0c1.27,0.16 2.31,1.09 2.6,2.33l0.03 0.13 0.02 0.13c0.01,0.07 0.02,0.14 0.02,0.21 0.12,1.58 -0.99,2.98 -2.54,3.24l-0.15 0.02 0 0.31c0.01,0.6 -0.4,1.11 -0.97,1.24l-0.09 0.02 -0.09 0.01 -0.09 0 -8.11 0c-0.63,-0.01 -1.15,-0.48 -1.23,-1.1l-0.01 -0.09 -0 -0.09 0 -0.08c-0,-0.01 -0,-0.02 0,-0.03l0 -10.63c-0,-0.01 -0,-0.02 0,-0.03l0 -0.08c-0.01,-0.63 0.5,-1.15 1.13,-1.16l0.1 0 0.02 -0 7.12 -0c0,0 0,0 0,0l0.13 0zm0.76 13.06l0.08 0 0.08 -0c0.5,-0.05 0.9,-0.45 0.93,-0.95l0 -0.09 0 -0.52 0.23 -0.02c1.44,-0.17 2.5,-1.41 2.47,-2.85 -0.03,1.49 -1.19,2.74 -2.7,2.86l0 0.42c0.01,0.62 -0.48,1.14 -1.1,1.16zm1.1 -7.43c-0,0 -0,0 -0,-0 0,-0.66 0,-1.2 0,-1.64l-0 1.64zm-2.25 -4.2l-0 -0.74 -6.86 0c-0.27,0.01 -0.5,0.2 -0.55,0.46l-0.01 0.07 -0 0.07 0 10.75c-0.01,0.27 0.18,0.51 0.43,0.57l0.06 0.01 0.06 0.01 8.01 0c0.37,-0.02 0.65,-0.32 0.66,-0.69 0,-0 0,-0 0,-0.01 0,-0 0,-0 0,-0l0 -0.03 -0 -0.18 -0.03 -0c-1.29,-0.16 -2.34,-1.12 -2.61,-2.39l-0.02 -0.13c-0.01,-0.04 -0.01,-0.08 0,-0.12 -0,-0 -0,-0.01 -0,-0.01 -0.02,-0.12 0.06,-0.24 0.19,-0.26 0.03,-0.01 0.06,-0 0.09,0 0,-0 0.01,-0 0.01,-0 0.19,-0.03 0.37,0.09 0.4,0.28 0.19,1.12 1.15,1.95 2.29,1.97 0.8,-0.02 1.53,-0.43 1.98,-1.09 0.27,-0.41 0.41,-0.87 0.42,-1.32 -0.02,-0.74 -0.38,-1.46 -1.04,-1.9 -1.08,-0.73 -2.55,-0.44 -3.28,0.64 -0.11,0.16 -0.32,0.2 -0.47,0.09 -0.12,-0.08 -0.17,-0.22 -0.15,-0.35 -0.01,-0.06 -0,-0.12 0.03,-0.18 0.5,-0.74 1.31,-1.21 2.21,-1.28l0 -3.16 -1.01 0c-0.38,0 -0.7,-0.27 -0.78,-0.63l-0.01 -0.08 -0 -0.08 0 -0.11c0,-0 -0,-0.01 -0,-0.01l0 -0.15zm-0.15 5.84c0.05,0.02 0.11,0.01 0.14,-0.04 0.49,-0.72 1.27,-1.12 2.08,-1.15 -0.81,-0.01 -1.61,0.37 -2.1,1.09 -0.03,0.04 -0.07,0.07 -0.12,0.09zm-7.51 4.68c-0,-0.01 -0,-0.02 -0,-0.04l0 -10.74c-0.01,-0.38 0.29,-0.7 0.68,-0.71l0.11 0 -0.07 0c-0.38,0.05 -0.68,0.35 -0.71,0.74l-0 0.08 0 10.67zm6.54 -0.56c0,-0.19 -0.15,-0.34 -0.34,-0.34l-4.5 0 -0.01 0 -0.11 0c-0.12,0 -0.23,0.1 -0.23,0.23 0,0 0,0.01 0,0.01 0,0.01 0,0.03 0.01,0.04 -0,0.02 -0.01,0.04 -0.01,0.06 0,0.19 0.15,0.34 0.34,0.34l4.5 0 0.06 -0.01 0.05 -0.02c0.14,-0.05 0.23,-0.18 0.23,-0.32zm-0.45 0.11l0.09 0 0.03 -0c0.05,-0.01 0.09,-0.05 0.09,-0.11 0,-0.02 -0,-0.03 -0.01,-0.05 -0.03,0.09 -0.11,0.15 -0.2,0.16zm0.45 -1.24c0,-0.19 -0.15,-0.34 -0.34,-0.34l-4.5 0 -0.01 0 -0.11 0c-0.12,0 -0.23,0.1 -0.23,0.23 0,0.02 0,0.04 0.01,0.05 -0,0.02 -0.01,0.04 -0.01,0.06 0,0.19 0.15,0.34 0.34,0.34l4.5 0 0.06 -0.01 0.05 -0.02c0.14,-0.05 0.23,-0.18 0.23,-0.32zm-0.24 -0.05c-0.03,0.09 -0.11,0.15 -0.2,0.16l0.09 0 0.03 -0c0.05,-0.01 0.09,-0.05 0.09,-0.11 0,-0.02 -0,-0.03 -0.01,-0.05zm-0.88 -1.08c0,-0.19 -0.15,-0.34 -0.34,-0.34l-3.38 0 -0.01 0 -0.11 0c-0.12,0 -0.23,0.1 -0.23,0.23 0,0.02 0,0.04 0.01,0.05 -0,0.02 -0.01,0.04 -0.01,0.06 0,0.19 0.15,0.34 0.34,0.34l3.38 0 0.06 -0.01 0.05 -0.02c0.14,-0.05 0.23,-0.18 0.23,-0.32zm-0.24 -0.05c-0.03,0.09 -0.11,0.15 -0.2,0.16l0.09 0 0.03 -0c0.05,-0.01 0.09,-0.05 0.09,-0.11 0,-0.02 -0,-0.03 -0.01,-0.05zm2.05 -1.44l-0.02 -0 -0.04 0 -0.02 0.01c-0.12,-0.03 -0.24,0.04 -0.27,0.16 -0.03,0.09 -0.05,0.18 -0.06,0.28 -0,0.03 -0,0.05 0,0.08l-0 0.02c-0.02,0.19 0.11,0.36 0.3,0.39 0.19,0.02 0.36,-0.11 0.39,-0.3 0.01,-0.07 0.02,-0.14 0.04,-0.21 0.05,-0.18 -0.06,-0.37 -0.25,-0.42l-0.06 -0.01zm0.03 0.51c-0.01,0.09 -0.07,0.16 -0.16,0.19 0.01,0 0.02,0.01 0.03,0.01 0.06,0.01 0.12,-0.03 0.12,-0.09 0.01,-0.08 0.03,-0.16 0.05,-0.24 0.01,-0.03 0,-0.05 -0.01,-0.08 -0.02,0.07 -0.03,0.14 -0.04,0.21zm-2.18 -0.48c0.19,0 0.34,0.15 0.34,0.34 0,0.15 -0.09,0.27 -0.23,0.32l-0.05 0.02 -0.06 0.01 -3.38 0c-0.19,0 -0.34,-0.15 -0.34,-0.34 0,-0.02 0,-0.04 0.01,-0.06 -0,-0.02 -0.01,-0.03 -0.01,-0.05 0,-0.12 0.1,-0.23 0.23,-0.23l0.11 0 0.01 -0 3.38 0zm-0.11 0.45c0.1,-0.01 0.18,-0.07 0.2,-0.16 0.01,0.01 0.01,0.03 0.01,0.05 0,0.05 -0.04,0.1 -0.09,0.11l-0.03 0 -0.09 0zm0.45 -1.24c0,-0.19 -0.15,-0.34 -0.34,-0.34l-3.38 0 -0.01 0 -0.11 0c-0.12,0 -0.23,0.1 -0.23,0.23 0,0.02 0,0.04 0.01,0.05 -0,0.02 -0.01,0.04 -0.01,0.06 0,0.19 0.15,0.34 0.34,0.34l3.38 0 0.06 -0.01 0.05 -0.02c0.14,-0.05 0.23,-0.18 0.23,-0.32zm-0.45 0.11c0.1,-0 0.18,-0.07 0.2,-0.16 0.01,0.01 0.01,0.03 0.01,0.05 0,0.05 -0.04,0.1 -0.09,0.11l-0.03 0 -0.09 0zm3.37 -3.11c-0.04,-0.4 -0.38,-0.72 -0.79,-0.72l-5.41 0 -0.02 0 -0.1 0c-0.37,0 -0.68,0.3 -0.68,0.68l0 1.35 0 0.01 0 0.1 0 0.08c0.04,0.4 0.38,0.72 0.79,0.72l5.41 0 0.08 -0c0.4,-0.04 0.72,-0.38 0.72,-0.79l0 -1.35 -0 -0.08zm-0.23 1.31l0 -1.25 0 0.01 0 1.35 -0 0.07c-0.03,0.28 -0.27,0.49 -0.56,0.49l-0.08 0c0.36,-0.02 0.64,-0.31 0.64,-0.67zm-5.96 0.22l5.31 0c0.12,-0.01 0.2,-0.11 0.2,-0.22l0 -1.24c-0,-0.06 -0.05,-0.1 -0.11,-0.1l-5.41 0c-0.05,0 -0.09,0.03 -0.1,0.07l-0.01 0.03 0 1.35c0,0.05 0.03,0.09 0.07,0.1l0.03 0.01zm-0.34 -1.46l0 1.24 -0 -0.01 0 -1.35c0,-0.12 0.1,-0.23 0.23,-0.23l0.11 0 -0.04 0c-0.16,0.03 -0.29,0.17 -0.29,0.34zm6.31 -3.17l-0 -0 0 0.8c0,0 0,0.01 0,0.01l0 -0.81zm0.86 1.02l-0.62 -0.62 0 0.52c0,0.04 0.02,0.08 0.05,0.1l0.02 0.01 0.03 0 0.52 -0zm1.07 8.25l0 0.42 -0.41 0 0 -0.4c-0.23,-0.03 -0.52,-0.13 -0.71,-0.31l0.27 -0.42c0.21,0.16 0.38,0.23 0.56,0.23 0.22,0 0.31,-0.08 0.31,-0.26 0,-0.16 -0.19,-0.26 -0.4,-0.37 -0.29,-0.15 -0.64,-0.33 -0.64,-0.74 0,-0.4 0.23,-0.68 0.61,-0.75l0 -0.41 0.41 0 0 0.41c0.26,0.04 0.44,0.16 0.6,0.33l-0.31 0.36c-0.14,-0.13 -0.27,-0.2 -0.43,-0.2 -0.19,0 -0.28,0.07 -0.28,0.24 0,0.14 0.17,0.23 0.38,0.32 0.3,0.14 0.67,0.32 0.67,0.76 0,0.38 -0.21,0.69 -0.62,0.78z"/>
 </g>
</svg>
