<?xml version="1.0" encoding="UTF-8"?>
<!DOCTYPE svg PUBLIC "-//W3C//DTD SVG 1.1//EN" "http://www.w3.org/Graphics/SVG/1.1/DTD/svg11.dtd">
<!-- Creator: CorelDRAW 2018 (64 Bit) -->
<svg xmlns="http://www.w3.org/2000/svg" xml:space="preserve" width="11.4765mm" height="8.9262mm" version="1.1" style="shape-rendering:geometricPrecision; text-rendering:geometricPrecision; image-rendering:optimizeQuality; fill-rule:evenodd; clip-rule:evenodd"
viewBox="0 0 33.16 25.79"
 xmlns:xlink="http://www.w3.org/1999/xlink">
 <defs>
  <style type="text/css">
   <![CDATA[
    .fil0 {fill:#E17800;fill-rule:nonzero}
   ]]>
  </style>
 </defs>
 <g id="Capa_x0020_1">
  <metadata id="CorelCorpID_0Corel-Layer"/>
  <path class="fil0" d="M27.8 21.72c0,0.39 -0.26,0.67 -0.64,0.67 -0.39,0 -0.64,-0.3 -0.64,-0.67 0,-0.37 0.25,-0.67 0.64,-0.67 0.38,0 0.64,0.3 0.64,0.67zm-17.89 -0.67c-0.41,0 -0.64,0.3 -0.64,0.67 0,0.37 0.24,0.67 0.64,0.67 0.37,0 0.63,-0.28 0.63,-0.67 -0.01,-0.37 -0.25,-0.67 -0.63,-0.67zm6.76 -0.02c-0.31,0 -0.5,0.2 -0.55,0.5l1.1 0c-0.05,-0.33 -0.25,-0.5 -0.55,-0.5zm6.21 0.02c-0.39,0 -0.63,0.3 -0.63,0.67 0,0.37 0.24,0.67 0.63,0.67 0.39,0 0.64,-0.28 0.64,-0.67 0,-0.37 -0.25,-0.67 -0.64,-0.67zm6.1 1.5c0,0.02 0.02,0.03 0.02,0.06 0,0.02 -0.02,0.03 -0.02,0.06 -0.02,0.02 -0.02,0.03 -0.03,0.05 -0.02,0.02 -0.03,0.03 -0.06,0.03 -0.02,0.02 -0.03,0.02 -0.06,0.02 -0.02,0 -0.03,0 -0.06,-0.02 -0.02,0 -0.03,-0.02 -0.05,-0.03 -0.02,-0.02 -0.03,-0.03 -0.03,-0.05 -0.02,-0.03 -0.02,-0.05 -0.02,-0.06 0,-0.03 0,-0.05 0.02,-0.06 0,-0.03 0.02,-0.05 0.03,-0.06 0.02,-0.02 0.03,-0.02 0.05,-0.03 0.03,-0.02 0.05,-0.02 0.06,-0.02 0.03,0 0.05,0 0.06,0.02 0.03,0.02 0.05,0.02 0.06,0.03 0.02,0.01 0.01,0.03 0.03,0.06zm-0.13 0.08c0.03,0 0.03,-0.02 0.05,-0.02 0.02,-0.02 0.02,-0.03 0.02,-0.05 0,-0.02 0,-0.03 -0.02,-0.05 -0.02,0 -0.03,-0.02 -0.06,-0.02l-0.09 0 0 0.2 0.05 0 0 -0.08 0.02 0 0.06 0.08 0.05 0 -0.06 -0.07 0 0zm4.31 -19.87l0 20.26c0,1.53 -1.24,2.76 -2.76,2.76l-27.63 0c-1.53,0 -2.76,-1.24 -2.76,-2.76l0 -20.26c0,-1.53 1.24,-2.76 2.76,-2.76l27.63 0c1.53,0 2.76,1.24 2.76,2.76zm-29.47 8.04c0,4.4 3.57,7.97 7.97,7.97 1.57,0 3.1,-0.47 4.4,-1.33 -4.2,-3.41 -4.17,-9.86 0,-13.27 -1.3,-0.86 -2.84,-1.33 -4.4,-1.33 -4.4,-0.01 -7.97,3.57 -7.97,7.96zm12.9 6.26c4.06,-3.17 4.04,-9.34 0,-12.52 -4.04,3.18 -4.06,9.36 0,12.52zm-8.19 4.39c0,-0.5 -0.33,-0.83 -0.85,-0.85 -0.26,0 -0.55,0.08 -0.74,0.37 -0.14,-0.24 -0.37,-0.37 -0.7,-0.37 -0.22,0 -0.44,0.08 -0.61,0.31l0 -0.25 -0.47 0 0 2.11 0.47 0c0,-1.09 -0.14,-1.74 0.52,-1.74 0.59,0 0.47,0.59 0.47,1.74l0.45 0c0,-1.05 -0.14,-1.74 0.52,-1.74 0.59,0 0.47,0.58 0.47,1.74l0.47 0 0 -1.32 -0.01 0zm2.58 -0.79l-0.45 0 0 0.25c-0.16,-0.19 -0.37,-0.31 -0.67,-0.31 -0.59,0 -1.05,0.47 -1.05,1.11 0,0.64 0.45,1.11 1.05,1.11 0.3,0 0.52,-0.11 0.67,-0.31l0 0.26 0.45 0 0 -2.12zm2.33 1.47c0,-0.86 -1.32,-0.47 -1.32,-0.88 0,-0.33 0.69,-0.28 1.07,-0.06l0.19 -0.37c-0.54,-0.35 -1.74,-0.35 -1.74,0.47 0,0.82 1.32,0.48 1.32,0.86 0,0.36 -0.78,0.33 -1.19,0.05l-0.2 0.36c0.64,0.44 1.88,0.35 1.88,-0.43l0 0zm2.04 0.54l-0.13 -0.39c-0.22,0.12 -0.7,0.25 -0.7,-0.24l0 -0.96 0.75 0 0 -0.43 -0.75 0 0 -0.64 -0.47 0 0 0.64 -0.44 0 0 0.42 0.44 0 0 0.96c0,1.01 1,0.83 1.3,0.63l0 0zm0.77 -0.77l1.58 0c0,-0.93 -0.43,-1.3 -1,-1.3 -0.61,0 -1.05,0.45 -1.05,1.11 0,1.18 1.3,1.38 1.95,0.82l-0.22 -0.35c-0.45,0.37 -1.13,0.33 -1.26,-0.28l0 0zm3.4 -1.24c-0.26,-0.11 -0.67,-0.1 -0.87,0.25l0 -0.25 -0.47 0 0 2.11 0.47 0 0 -1.19c0,-0.67 0.55,-0.58 0.74,-0.48l0.14 -0.44 0 0zm0.61 1.05c0,-0.66 0.67,-0.87 1.19,-0.48l0.22 -0.37c-0.67,-0.52 -1.88,-0.24 -1.88,0.86 0,1.14 1.29,1.37 1.88,0.86l-0.22 -0.37c-0.53,0.37 -1.19,0.15 -1.19,-0.5zm3.84 -1.05l-0.47 0 0 0.25c-0.48,-0.63 -1.72,-0.28 -1.72,0.8 0,1.11 1.29,1.42 1.72,0.8l0 0.26 0.47 0 0 -2.12 0 0zm1.94 0c-0.14,-0.07 -0.63,-0.17 -0.88,0.25l0 -0.25 -0.45 0 0 2.11 0.45 0 0 -1.19c0,-0.63 0.52,-0.59 0.74,-0.48l0.14 -0.44 0 0zm2.32 -0.86l-0.45 0 0 1.11c-0.47,-0.63 -1.72,-0.29 -1.72,0.8 0,1.12 1.3,1.42 1.72,0.8l0 0.26 0.45 0 0 -2.98zm0.44 -4.32l0 0.26 0.05 0 0 -0.26 0.11 0 0 -0.05 -0.26 0 0 0.05 0.11 0 0 0zm0.38 7.13c0,-0.03 0,-0.06 -0.02,-0.09 -0.02,-0.02 -0.03,-0.05 -0.05,-0.06 -0.02,-0.02 -0.05,-0.03 -0.06,-0.05 -0.03,0 -0.06,-0.02 -0.09,-0.02 -0.02,0 -0.05,0.02 -0.08,0.02 -0.03,0.02 -0.05,0.03 -0.06,0.05 -0.03,0.02 -0.05,0.05 -0.05,0.06 -0.02,0.03 -0.02,0.06 -0.02,0.09 0,0.02 0,0.05 0.02,0.08 0,0.02 0.02,0.05 0.05,0.06 0.02,0.02 0.03,0.03 0.06,0.05 0.03,0.02 0.06,0.02 0.08,0.02 0.03,0 0.06,0 0.09,-0.02 0.02,-0.02 0.05,-0.03 0.06,-0.05 0.02,-0.02 0.03,-0.05 0.05,-0.06 0.02,-0.03 0.02,-0.06 0.02,-0.08zm0.18 -7.18l-0.08 0 -0.09 0.2 -0.09 -0.2 -0.08 0 0 0.31 0.05 0 0 -0.24 0.09 0.2 0.06 0 0.08 -0.2 0 0.24 0.06 0 0 -0.31 0 0zm0.25 -4.63c0,-4.39 -3.57,-7.96 -7.97,-7.96 -1.57,0 -3.1,0.47 -4.4,1.33 4.15,3.41 4.21,9.87 0,13.27 1.3,0.86 2.85,1.33 4.4,1.33 4.4,0.01 7.97,-3.56 7.97,-7.97l0 0z"/>
 </g>
</svg>
