<?xml version="1.0" encoding="UTF-8"?>
<!DOCTYPE svg PUBLIC "-//W3C//DTD SVG 1.1//EN" "http://www.w3.org/Graphics/SVG/1.1/DTD/svg11.dtd">
<!-- Creator: CorelDRAW 2018 (64 Bit) -->
<svg xmlns="http://www.w3.org/2000/svg" xml:space="preserve" width="7.3763mm" height="7.3761mm" version="1.1" style="shape-rendering:geometricPrecision; text-rendering:geometricPrecision; image-rendering:optimizeQuality; fill-rule:evenodd; clip-rule:evenodd"
viewBox="0 0 13.18 13.18"
 xmlns:xlink="http://www.w3.org/1999/xlink">
 <defs>
  <style type="text/css">
   <![CDATA[
    .fil0 {fill:#3459CE;fill-rule:nonzero}
   ]]>
  </style>
 </defs>
 <g id="Capa_x0020_1">
  <metadata id="CorelCorpID_0Corel-Layer"/>
  <path class="fil0" d="M12.54 9.58l-0.22 0.22 0 0 0.22 -0.22zm-1.56 -1.56l0.22 -0.22 -0 0 -0.22 0.22zm-1.56 0l-0.22 -0.22 -0 0 0.22 0.22zm-0.26 0.26l-0.22 -0.22c-0.12,0.12 -0.12,0.32 0,0.45l0.22 -0.22zm3.12 3.12l-0.22 0.22c0.12,0.12 0.32,0.12 0.45,0l-0.22 -0.22zm0.26 -0.26l-0.22 -0.22 0 0 0.22 0.22zm0.22 -1.78l-1.56 -1.56 -0.45 0.45 1.56 1.56 0.45 -0.45zm-1.56 -1.56c-0.54,-0.54 -1.47,-0.54 -2.01,0l0.45 0.45c0.29,-0.29 0.82,-0.29 1.11,0l0.45 -0.45zm-2.01 0l-0.26 0.26 0.45 0.45 0.26 -0.26 -0.45 -0.45zm-0.26 0.71l3.12 3.12 0.45 -0.45 -3.12 -3.12 -0.45 0.45zm3.57 3.12l0.26 -0.26 -0.45 -0.45 -0.26 0.26 0.45 0.45zm0.26 -0.26c0.13,-0.13 0.24,-0.29 0.31,-0.46l-0.58 -0.24c-0.04,0.1 -0.1,0.18 -0.17,0.26l0.45 0.45zm0.31 -0.46c0.07,-0.17 0.11,-0.36 0.11,-0.54l-0.63 0c0,0.1 -0.02,0.21 -0.06,0.3l0.58 0.24zm0.11 -0.54c0,-0.19 -0.04,-0.37 -0.11,-0.54l-0.58 0.24c0.04,0.1 0.06,0.2 0.06,0.3l0.63 -0zm-0.11 -0.54c-0.07,-0.17 -0.18,-0.33 -0.31,-0.46l-0.45 0.45c0.07,0.07 0.13,0.16 0.17,0.26l0.58 -0.24z"/>
  <path class="fil0" d="M8.63 8.78l0.22 -0.22c-0.11,-0.11 -0.29,-0.12 -0.42,-0.03l0.19 0.25zm-1.1 -0.06l0.22 -0.22 -0 -0 -0.22 0.22zm-3.09 -3.09l-0.22 0.22 0 0 0.22 -0.22zm-0.06 -1.1l0.25 0.19c0.1,-0.13 0.09,-0.3 -0.03,-0.42l-0.22 0.22zm-3.11 -3.11l0.22 -0.22c-0.06,-0.06 -0.15,-0.1 -0.23,-0.09 -0.09,0 -0.17,0.04 -0.23,0.11l0.24 0.21zm0.19 5.39l0.22 -0.22 -0 0 -0.22 0.22zm4.88 4.88l-0.22 0.22 0 0 0.22 -0.22zm5.39 0.19l0.21 0.24c0.07,-0.06 0.11,-0.14 0.11,-0.23 0,-0.09 -0.03,-0.17 -0.09,-0.23l-0.22 0.22zm-3.31 -3.36c-0.21,0.16 -0.5,0.15 -0.68,-0.03l-0.45 0.45c0.42,0.42 1.07,0.43 1.51,0.08l-0.39 -0.5zm-0.68 -0.03l-3.09 -3.09 -0.45 0.45 3.09 3.09 0.45 -0.45zm-3.09 -3.09c-0.18,-0.18 -0.19,-0.47 -0.03,-0.68l-0.5 -0.39c-0.34,0.44 -0.34,1.09 0.08,1.51l0.45 -0.45zm-0.06 -1.1l-3.11 -3.11 -0.45 0.45 3.11 3.11 0.45 -0.45zm-3.58 -3.1c-1.44,1.68 -1.39,4.22 0.21,5.82l0.45 -0.45c-1.36,-1.36 -1.41,-3.53 -0.17,-4.96l-0.48 -0.41zm0.21 5.82l4.88 4.88 0.45 -0.45 -4.88 -4.88 -0.45 0.45zm4.88 4.88c1.53,1.53 4.04,1.73 5.82,0.21l-0.41 -0.48c-1.52,1.3 -3.66,1.13 -4.96,-0.17l-0.45 0.45zm5.84 -0.25l-3.11 -3.11 -0.45 0.45 3.11 3.11 0.45 -0.45z"/>
  <path class="fil0" d="M3.6 0.63l-0.22 0.22 0 0 0.22 -0.22zm-1.82 0.26l-0.22 -0.22c-0.12,0.12 -0.12,0.32 0,0.45l0.22 -0.22zm3.12 3.12l-0.22 0.22c0.06,0.06 0.14,0.09 0.22,0.09 0.08,0 0.16,-0.03 0.22,-0.09l-0.22 -0.22zm0.26 -0.26l-0.22 -0.22 -0 0 0.22 0.22zm0.22 -1.78l-1.56 -1.56 -0.45 0.45 1.56 1.56 0.45 -0.45zm-1.56 -1.56c-0.54,-0.54 -1.47,-0.54 -2.01,0l0.45 0.45c0.29,-0.29 0.82,-0.29 1.11,0l0.45 -0.45zm-2.01 0l-0.26 0.26 0.45 0.45 0.26 -0.26 -0.45 -0.45zm-0.26 0.71l3.12 3.12 0.45 -0.45 -3.12 -3.12 -0.45 0.45zm3.57 3.12l0.26 -0.26 -0.45 -0.45 -0.26 0.26 0.45 0.45zm0.26 -0.26c0.13,-0.13 0.24,-0.29 0.31,-0.46l-0.58 -0.24c-0.04,0.1 -0.1,0.18 -0.17,0.26l0.45 0.45zm0.31 -0.46c0.07,-0.17 0.11,-0.36 0.11,-0.54l-0.63 -0c0,0.1 -0.02,0.21 -0.06,0.3l0.58 0.24zm0.11 -0.54c0,-0.19 -0.04,-0.37 -0.11,-0.54l-0.58 0.24c0.04,0.1 0.06,0.2 0.06,0.3l0.63 0zm-0.11 -0.54c-0.07,-0.17 -0.18,-0.33 -0.31,-0.46l-0.45 0.45c0.07,0.07 0.13,0.16 0.17,0.26l0.58 -0.24z"/>
 </g>
</svg>
