<?xml version="1.0" encoding="UTF-8"?>
<!DOCTYPE svg PUBLIC "-//W3C//DTD SVG 1.1//EN" "http://www.w3.org/Graphics/SVG/1.1/DTD/svg11.dtd">
<!-- Creator: CorelDRAW 2018 (64 Bit) -->
<svg xmlns="http://www.w3.org/2000/svg" xml:space="preserve" width="7.4085mm" height="7.4083mm" version="1.1" style="shape-rendering:geometricPrecision; text-rendering:geometricPrecision; image-rendering:optimizeQuality; fill-rule:evenodd; clip-rule:evenodd"
viewBox="0 0 13.3 13.3"
 xmlns:xlink="http://www.w3.org/1999/xlink">
 <defs>
  <style type="text/css">
   <![CDATA[
    .fil0 {fill:#3459CE}
   ]]>
  </style>
 </defs>
 <g id="Capa_x0020_1">
  <metadata id="CorelCorpID_0Corel-Layer"/>
  <path class="fil0" d="M9.79 0c0.25,0 0.48,0.11 0.67,0.29 0.16,0.16 0.27,0.36 0.29,0.58l0.01 0.09 -0 1.58 1.58 0c0.19,0 0.37,0.06 0.52,0.17l0.08 0.06 0.07 0.07c0.16,0.16 0.27,0.36 0.29,0.58l0.01 0.09 0 8.83c-0,0.25 -0.11,0.48 -0.29,0.67 -0.16,0.16 -0.36,0.27 -0.57,0.29l-0.09 0.01 -8.83 0c-0.25,-0 -0.49,-0.11 -0.67,-0.29 -0.16,-0.16 -0.26,-0.36 -0.28,-0.58l-0.01 -0.09 -0 -1.58 -1.58 0c-0.19,-0 -0.37,-0.06 -0.52,-0.17l-0.08 -0.06 -0.07 -0.07c-0.16,-0.16 -0.26,-0.36 -0.28,-0.58l-0.01 -0.09 0 -4.03c-0,-0.19 0.14,-0.35 0.32,-0.37l0.05 -0c0.18,0 0.33,0.14 0.35,0.31l0 0.06 0 4.04c0,0.04 0.03,0.11 0.08,0.16 0.04,0.04 0.09,0.07 0.12,0.08l0.03 0.01 1.58 -0 0 -6.52c0,-0.19 0.06,-0.37 0.17,-0.52l0.06 -0.08 0.07 -0.07c0.16,-0.16 0.36,-0.26 0.57,-0.28l0.09 -0.01 6.52 -0 0 -1.58c0,-0.02 -0.01,-0.05 -0.02,-0.07l-0.03 -0.04 -0.03 -0.04c-0.04,-0.04 -0.08,-0.06 -0.12,-0.07l-0.03 -0.01 -8.83 0c-0.04,0 -0.11,0.03 -0.16,0.08 -0.04,0.04 -0.06,0.08 -0.07,0.12l-0.01 0.03 0 3.6c-0,0.2 -0.17,0.36 -0.37,0.36 -0.18,-0 -0.33,-0.14 -0.35,-0.31l-0 -0.06 0 -3.59c0,-0.25 0.11,-0.49 0.29,-0.67 0.16,-0.16 0.36,-0.26 0.57,-0.28l0.09 -0 8.83 0zm2.54 3.27l-8.83 0c-0.04,0 -0.11,0.03 -0.16,0.08 -0.04,0.04 -0.06,0.08 -0.07,0.12l-0.01 0.03 0 8.83c0,0.04 0.03,0.11 0.08,0.16 0.04,0.04 0.09,0.07 0.12,0.08l0.03 0.01 8.83 0c0.04,0 0.11,-0.03 0.16,-0.08 0.04,-0.04 0.06,-0.08 0.07,-0.12l0.01 -0.03 0 -8.83c0,-0.04 -0.03,-0.11 -0.08,-0.16 -0.05,-0.05 -0.12,-0.08 -0.16,-0.08zm-2.3 3.69c-0.45,-0.94 -1.41,-1.57 -2.49,-1.57 -1.52,0 -2.76,1.24 -2.76,2.76 0,1.01 0.53,1.93 1.38,2.41l0.05 0.03c0.15,0.07 0.34,0.03 0.45,-0.12 0.12,-0.16 0.08,-0.39 -0.08,-0.51 -0.02,-0.02 -0.05,-0.03 -0.07,-0.04 -0.62,-0.35 -1,-1.02 -1,-1.77 0,-1.13 0.91,-2.03 2.03,-2.03l0.12 0 0.12 0.01c0.8,0.09 1.47,0.66 1.7,1.43l0.02 0.09 -0.74 -0.41 -0.05 -0.02c-0.16,-0.06 -0.35,0.01 -0.44,0.17 -0.1,0.18 -0.03,0.4 0.14,0.49l1.35 0.75 0.05 0.02c0.16,0.06 0.35,-0.01 0.44,-0.17l0.75 -1.35 0.03 -0.06c0.06,-0.16 -0,-0.35 -0.16,-0.44 -0.07,-0.04 -0.14,-0.06 -0.22,-0.05l-0.06 0.01 -0.06 0.02c-0.07,0.03 -0.13,0.09 -0.17,0.16l-0.24 0.43 -0.04 -0.11 -0.06 -0.12z"/>
 </g>
</svg>
