<?xml version="1.0" encoding="UTF-8"?>
<!DOCTYPE svg PUBLIC "-//W3C//DTD SVG 1.1//EN" "http://www.w3.org/Graphics/SVG/1.1/DTD/svg11.dtd">
<!-- Creator: CorelDRAW 2018 (64 Bit) -->
<svg xmlns="http://www.w3.org/2000/svg" xml:space="preserve" width="14.1111mm" height="14.1111mm" version="1.1" style="shape-rendering:geometricPrecision; text-rendering:geometricPrecision; image-rendering:optimizeQuality; fill-rule:evenodd; clip-rule:evenodd"
viewBox="0 0 98.34 98.34"
 xmlns:xlink="http://www.w3.org/1999/xlink">
 <defs>
  <style type="text/css">
   <![CDATA[
    .fil1 {fill:#3459CE;fill-rule:nonzero}
    .fil2 {fill:#F28C51;fill-rule:nonzero}
    .fil0 {fill:#F3F5FC;fill-rule:nonzero}
    .fil3 {fill:white;fill-rule:nonzero}
   ]]>
  </style>
 </defs>
 <g id="Capa_x0020_1">
  <metadata id="CorelCorpID_0Corel-Layer"/>
  <path class="fil0" d="M49.17 98.34c27.15,0 49.17,-22.01 49.17,-49.17 0,-27.15 -22.01,-49.17 -49.17,-49.17 -27.15,0 -49.17,22.01 -49.17,49.17 0,27.15 22.01,49.17 49.17,49.17z"/>
  <path class="fil1" d="M65.68 51.16c-3.27,-3.3 -7.43,-5.54 -11.96,-6.45 -4.53,-0.91 -9.23,-0.44 -13.49,1.34 -4.27,1.78 -7.91,4.81 -10.48,8.69 -2.57,3.88 -3.94,8.44 -3.94,13.1l0 4.8c0,0.3 0.12,0.58 0.33,0.79 0.21,0.21 0.49,0.33 0.79,0.33 0.29,0 0.58,-0.12 0.79,-0.33 0.21,-0.21 0.33,-0.5 0.33,-0.79l0 -4.8c0,-5.66 2.23,-11.09 6.19,-15.09 3.96,-4 9.34,-6.25 14.94,-6.25 5.6,0 10.98,2.25 14.94,6.25 3.96,4 6.19,9.43 6.19,15.09l0 4.8c0,0.3 0.12,0.58 0.33,0.79 0.21,0.21 0.49,0.33 0.79,0.33 0.29,0 0.58,-0.12 0.79,-0.33 0.21,-0.21 0.33,-0.5 0.33,-0.79l0 -4.8c0.01,-3.1 -0.59,-6.17 -1.77,-9.03 -1.17,-2.86 -2.9,-5.46 -5.07,-7.65z"/>
  <path class="fil1" d="M65.68 51.16l-0.87 0.86 0 0 0.87 -0.87zm-39.87 16.67l1.23 0 0 0 -1.23 0zm0 4.8l-1.23 0 1.23 0zm1.11 1.12l0 -1.23 0 1.23zm43.37 -5.92l1.23 0 -1.23 0zm0 4.8l1.23 0 -1.23 0zm1.11 1.12l0 -1.23 0 1.23zm1.11 -1.12l-1.23 0 1.23 0zm0 -4.8l-1.23 -0 0 0 1.23 0zm-5.97 -17.54c-3.44,-3.47 -7.82,-5.84 -12.59,-6.79l-0.48 2.41c4.29,0.86 8.23,2.99 11.33,6.11l1.75 -1.73zm-12.59 -6.79c-4.77,-0.96 -9.72,-0.47 -14.21,1.41l0.95 2.27c4.04,-1.69 8.49,-2.13 12.78,-1.27l0.48 -2.41zm-14.21 1.41c-4.49,1.88 -8.33,5.06 -11.03,9.14l2.05 1.36c2.43,-3.68 5.89,-6.54 9.93,-8.23l-0.95 -2.27zm-11.03 9.14c-2.7,4.08 -4.14,8.88 -4.14,13.78l2.46 0c0,-4.42 1.3,-8.75 3.73,-12.42l-2.05 -1.36zm-4.14 13.78l0 4.8 2.46 0 0 -4.8 -2.46 0zm0 4.8c0,0.62 0.24,1.22 0.68,1.66l1.75 -1.73c0.02,0.02 0.03,0.05 0.03,0.07l-2.46 0zm0.68 1.66c0.44,0.44 1.03,0.69 1.66,0.69l0 -2.46c0.03,0 0.07,0.01 0.09,0.04l-1.75 1.73zm1.66 0.69c0.62,0 1.22,-0.25 1.66,-0.69l-1.75 -1.73c0.02,-0.02 0.05,-0.04 0.09,-0.04l0 2.46zm1.66 -0.69c0.44,-0.44 0.68,-1.04 0.68,-1.66l-2.46 0c0,-0.02 0.01,-0.05 0.03,-0.07l1.75 1.73zm0.68 -1.66l0 -4.8 -2.46 0 0 4.8 2.46 0zm0 -4.8c0,-5.34 2.1,-10.45 5.83,-14.22l-1.75 -1.73c-4.19,4.23 -6.54,9.97 -6.54,15.95l2.46 0zm5.83 -14.22c3.73,-3.77 8.79,-5.89 14.07,-5.89l0 -2.46c-5.93,0 -11.62,2.38 -15.82,6.61l1.75 1.73zm14.07 -5.89c5.27,0 10.34,2.11 14.07,5.89l1.75 -1.73c-4.19,-4.23 -9.88,-6.61 -15.82,-6.61l0 2.46zm14.07 5.89c3.73,3.77 5.83,8.89 5.83,14.22l2.46 0c0,-5.98 -2.35,-11.72 -6.55,-15.95l-1.75 1.73zm5.83 14.22l0 4.8 2.46 0 0 -4.8 -2.46 0zm0 4.8c0,0.62 0.24,1.22 0.68,1.66l1.75 -1.73c0.02,0.02 0.03,0.05 0.03,0.07l-2.46 0zm0.68 1.66c0.44,0.44 1.03,0.69 1.66,0.69l0 -2.46c0.03,0 0.07,0.01 0.09,0.04l-1.75 1.73zm1.66 0.69c0.62,0 1.22,-0.25 1.66,-0.69l-1.75 -1.73c0.02,-0.02 0.05,-0.04 0.09,-0.04l0 2.46zm1.66 -0.69c0.44,-0.44 0.68,-1.04 0.68,-1.66l-2.46 0c0,-0.02 0.01,-0.05 0.03,-0.07l1.75 1.73zm0.68 -1.66l0 -4.8 -2.46 0 0 4.8 2.46 0zm0 -4.79c0.01,-3.26 -0.62,-6.49 -1.86,-9.5l-2.27 0.93c1.11,2.71 1.68,5.62 1.67,8.56l2.46 0.01zm-1.86 -9.5c-1.24,-3.01 -3.05,-5.75 -5.34,-8.05l-1.74 1.74c2.06,2.07 3.7,4.53 4.81,7.24l2.27 -0.93z"/>
  <path class="fil2" d="M60.34 22.13c-0.3,0 -0.58,0.11 -0.79,0.3 -0.21,0.19 -0.33,0.46 -0.33,0.73l0 4.82c0,2.46 -1.06,4.83 -2.94,6.57 -1.89,1.74 -4.44,2.72 -7.11,2.72 -2.67,0 -5.22,-0.98 -7.11,-2.72 -1.89,-1.74 -2.94,-4.11 -2.94,-6.57l0 -4.82c-0.01,-0.27 -0.13,-0.52 -0.34,-0.7 -0.21,-0.19 -0.49,-0.29 -0.78,-0.29 -0.29,0 -0.57,0.1 -0.78,0.29 -0.21,0.18 -0.33,0.44 -0.34,0.7l0 4.82c0,3.01 1.3,5.9 3.6,8.03 2.31,2.13 5.43,3.33 8.69,3.33 3.26,0 6.39,-1.2 8.69,-3.33 2.31,-2.13 3.6,-5.02 3.6,-8.03l0 -4.82c0,-0.27 -0.12,-0.54 -0.33,-0.73 -0.21,-0.19 -0.49,-0.3 -0.79,-0.3l0 0z"/>
  <path class="fil2" d="M59.22 23.16l-1.23 -0 0 0 1.23 0zm-20.11 0l1.23 0 0 -0.03 -0 -0.03 -1.23 0.05zm-2.24 0l-1.23 -0.05 -0 0.03 0 0.03 1.23 0zm0 4.82l-1.23 0 0 0 1.23 0zm12.29 11.36l0 -1.23 0 1.23zm12.29 -11.36l1.23 0 0 0 -1.23 0zm0 -4.82l1.23 0 0 -0 -1.23 0zm-1.12 -2.26c-0.59,0 -1.18,0.22 -1.63,0.63l1.67 1.81c-0.01,0.01 -0.03,0.02 -0.03,0.02 -0.01,0 -0.01,0 -0.01,0l0 -2.46zm-1.63 0.63c-0.45,0.41 -0.72,1 -0.72,1.63l2.46 0c0,0.08 -0.04,0.14 -0.07,0.17l-1.67 -1.81zm-0.72 1.63l0 4.82 2.46 0 0 -4.82 -2.46 0zm0 4.82c0,2.11 -0.9,4.15 -2.55,5.67l1.67 1.81c2.13,-1.96 3.34,-4.65 3.34,-7.47l-2.46 0zm-2.55 5.67c-1.65,1.52 -3.9,2.4 -6.28,2.4l0 2.46c2.96,0 5.82,-1.09 7.94,-3.05l-1.67 -1.81zm-6.28 2.4c-2.37,0 -4.63,-0.87 -6.27,-2.4l-1.67 1.81c2.12,1.96 4.98,3.05 7.94,3.05l0 -2.46zm-6.27 -2.4c-1.65,-1.52 -2.55,-3.56 -2.55,-5.67l-2.46 0c0,2.82 1.21,5.51 3.34,7.47l1.67 -1.81zm-2.55 -5.67l0 -4.82 -2.46 0 0 4.82 2.46 0zm-0 -4.87c-0.03,-0.62 -0.31,-1.17 -0.76,-1.57l-1.63 1.84c-0.03,-0.03 -0.07,-0.08 -0.07,-0.16l2.46 -0.11zm-0.76 -1.57c-0.44,-0.39 -1.01,-0.6 -1.59,-0.6l0 2.46c-0,0 -0,0 -0.01,-0 -0.01,-0 -0.02,-0.01 -0.03,-0.02l1.63 -1.84zm-1.59 -0.6c-0.58,0 -1.15,0.21 -1.59,0.6l1.63 1.84c-0.01,0.01 -0.02,0.02 -0.03,0.02 -0.01,0 -0.01,0 -0.01,0l0 -2.46zm-1.59 0.6c-0.45,0.4 -0.73,0.95 -0.76,1.57l2.46 0.11c-0,0.08 -0.04,0.14 -0.07,0.16l-1.63 -1.84zm-0.76 1.62l0 4.82 2.46 0 0 -4.82 -2.46 0zm0 4.82c0,3.37 1.45,6.58 4,8.93l1.67 -1.81c-2.07,-1.91 -3.21,-4.48 -3.21,-7.13l-2.46 0zm4 8.93c2.54,2.35 5.97,3.65 9.53,3.65l0 -2.46c-2.96,0 -5.79,-1.09 -7.86,-3l-1.67 1.81zm9.53 3.65c3.56,0 6.98,-1.3 9.53,-3.65l-1.67 -1.81c-2.07,1.91 -4.89,3 -7.86,3l0 2.46zm9.53 -3.65c2.54,-2.35 4,-5.56 4,-8.93l-2.46 0c0,2.65 -1.14,5.22 -3.2,7.13l1.67 1.81zm4 -8.93l0 -4.82 -2.46 0 0 4.82 2.46 0zm0 -4.82c-0,-0.63 -0.27,-1.22 -0.72,-1.63l-1.67 1.81c-0.03,-0.03 -0.07,-0.09 -0.07,-0.17l2.46 -0zm-0.72 -1.63c-0.45,-0.41 -1.03,-0.63 -1.62,-0.63l-0 2.46c-0,0 -0,0 -0.01,-0 -0.01,-0 -0.02,-0.01 -0.03,-0.02l1.67 -1.81z"/>
  <path class="fil3" d="M49.17 90.96c-23.08,0 -41.79,-18.71 -41.79,-41.79l-7.37 0c0,-27.15 22.01,-49.17 49.17,-49.17l0 7.38c23.08,0 41.79,18.71 41.79,41.79l7.37 0c0,-27.15 -22.01,-49.17 -49.17,-49.17l0 7.38c-23.08,0 -41.79,18.71 -41.79,41.79l-7.37 0c0,27.15 22.01,49.17 49.17,49.17l0 -7.37zm49.17 -41.79c0,27.15 -22.01,49.17 -49.17,49.17l0 -7.37c23.08,0 41.79,-18.71 41.79,-41.79l7.37 0z"/>
 </g>
</svg>
