<?xml version="1.0" encoding="UTF-8"?>
<!DOCTYPE svg PUBLIC "-//W3C//DTD SVG 1.1//EN" "http://www.w3.org/Graphics/SVG/1.1/DTD/svg11.dtd">
<!-- Creator: CorelDRAW 2018 (64 Bit) -->
<svg xmlns="http://www.w3.org/2000/svg" xml:space="preserve" width="11.4766mm" height="8.9262mm" version="1.1" style="shape-rendering:geometricPrecision; text-rendering:geometricPrecision; image-rendering:optimizeQuality; fill-rule:evenodd; clip-rule:evenodd"
viewBox="0 0 30.91 24.04"
 xmlns:xlink="http://www.w3.org/1999/xlink">
 <defs>
  <style type="text/css">
   <![CDATA[
    .fil0 {fill:#252850;fill-rule:nonzero}
   ]]>
  </style>
 </defs>
 <g id="Capa_x0020_1">
  <metadata id="CorelCorpID_0Corel-Layer"/>
  <path class="fil0" d="M25.22 10.69c0,0 0.41,2 0.5,2.41l-1.79 0c0.18,-0.48 0.86,-2.33 0.86,-2.33 -0.01,0.02 0.18,-0.49 0.28,-0.8l0.15 0.72zm5.68 -8.12l0 18.89c0,1.42 -1.15,2.58 -2.58,2.58l-25.76 0c-1.42,0 -2.58,-1.15 -2.58,-2.58l0 -18.89c0,-1.42 1.15,-2.58 2.58,-2.58l25.76 0c1.42,0 2.58,1.15 2.58,2.58zm-22.72 13.48l3.39 -8.33 -2.28 0 -2.11 5.69 -0.23 -1.15 -0.75 -3.83c-0.12,-0.53 -0.5,-0.68 -0.98,-0.7l-3.47 0 -0.04 0.17c0.85,0.21 1.6,0.53 2.26,0.92l1.92 7.24 2.28 0zm5.07 0.01l1.35 -8.34 -2.16 0 -1.35 8.34 2.15 0 0 0zm7.51 -2.73c0.01,-0.95 -0.57,-1.67 -1.81,-2.27 -0.76,-0.38 -1.22,-0.64 -1.22,-1.03 0.01,-0.35 0.39,-0.72 1.24,-0.72 0.7,-0.02 1.22,0.15 1.6,0.32l0.19 0.09 0.3 -1.8c-0.42,-0.17 -1.1,-0.35 -1.93,-0.35 -2.13,0 -3.63,1.14 -3.64,2.76 -0.02,1.2 1.07,1.86 1.89,2.26 0.83,0.41 1.12,0.68 1.12,1.04 -0.01,0.56 -0.68,0.82 -1.29,0.82 -0.86,0 -1.32,-0.13 -2.02,-0.45l-0.28 -0.13 -0.3 1.87c0.5,0.23 1.44,0.43 2.4,0.45 2.26,0.01 3.74,-1.12 3.76,-2.84zm7.58 2.73l-1.74 -8.34 -1.67 0c-0.52,0 -0.91,0.15 -1.13,0.69l-3.2 7.65 2.26 0c0,0 0.37,-1.03 0.45,-1.25l2.77 0c0.06,0.3 0.26,1.25 0.26,1.25l2 0z"/>
 </g>
</svg>
